# xmcd
#
# Track frame offsets: 
#        188
#        18318
#        49318
#        76185
#
# Disc length: 1222 seconds
#
# Revision: 4
# Processed by: cddbd v1.5.2PL0 Copyright (c) Steve Scherf et al.
# Submitted via: ExactAudioCopyFreeDBPlugin 1.0
#
DISCID=2504c404
DTITLE=Eartha Kitt - Where Is My Man (Special Remix '94)
DYEAR=1994
DGENRE=Pop
TTITLE0=Where Is My Man (Single Mix)
TTITLE1=Where Is My Man (Extended Mix)
TTITLE2=Where Is My Man (Mega Bass mix)
TTITLE3=Where Is My Man (Radio Edit)
EXTD=
EXTT0=
EXTT1=
EXTT2=
EXTT3=
PLAYORDER=
